<svg xmlns="http://www.w3.org/2000/svg" viewBox="0 0 128 128" width="128" height="128">
  <defs>
    <linearGradient id="bg" x1="0%" y1="0%" x2="100%" y2="100%">
      <stop offset="0%" style="stop-color:#ffca28"/>
      <stop offset="100%" style="stop-color:#ffd54f"/>
    </linearGradient>
  </defs>
  <rect width="128" height="128" rx="28" fill="url(#bg)"/>
  <!-- Browser window frame -->
  <rect x="20" y="30" width="88" height="68" rx="8" fill="#1e1e1e" fill-opacity="0.82"/>
  <!-- Title bar -->
  <rect x="20" y="30" width="88" height="16" rx="8" fill="#1e1e1e" fill-opacity="0.9"/>
  <rect x="20" y="38" width="88" height="8" fill="#1e1e1e" fill-opacity="0.9"/>
  <!-- Traffic light dots -->
  <circle cx="31" cy="38" r="2.5" fill="#ffca28" fill-opacity="0.6"/>
  <circle cx="39" cy="38" r="2.5" fill="#ffca28" fill-opacity="0.4"/>
  <circle cx="47" cy="38" r="2.5" fill="#ffca28" fill-opacity="0.4"/>
  <!-- URL bar -->
  <rect x="55" y="34.5" width="44" height="7" rx="3.5" fill="#ffca28" fill-opacity="0.15"/>
  <!-- Content area -->
  <!-- Hero section -->
  <rect x="28" y="54" width="32" height="4" rx="2" fill="#ffca28" fill-opacity="0.5"/>
  <rect x="28" y="61" width="50" height="2.5" rx="1.2" fill="#1e1e1e" fill-opacity="0.3"/>
  <rect x="28" y="66" width="42" height="2.5" rx="1.2" fill="#1e1e1e" fill-opacity="0.2"/>
  <!-- Code/content blocks -->
  <rect x="28" y="74" width="22" height="16" rx="4" fill="#1e1e1e" fill-opacity="0.25"/>
  <rect x="53" y="74" width="22" height="16" rx="4" fill="#1e1e1e" fill-opacity="0.25"/>
  <rect x="78" y="74" width="22" height="16" rx="4" fill="#1e1e1e" fill-opacity="0.25"/>
  <!-- Sparkle accent -->
  <g fill="#1e1e1e" fill-opacity="0.7">
    <path d="M96 24l1.5 3 3 1.5-3 1.5-1.5 3-1.5-3-3-1.5 3-1.5z"/>
    <path d="M86 20l1 2 2 1-2 1-1 2-1-2-2-1 2-1z" fill-opacity="0.4"/>
  </g>
</svg>
